<svg id="Layer_1" data-name="Layer 1" xmlns="http://www.w3.org/2000/svg" viewBox="0 0 703 358"><defs><style>.cls-1{fill:#fd3018;}.cls-2{fill:#e61e14;}.cls-3{fill:#ed1c24;}.cls-4{fill:#ff1d25;}.cls-5{fill:#006837;}.cls-6{fill:#005237;}.cls-7{fill:#32d736;}.cls-8{fill:#10bb67;}.cls-9{fill:none;stroke:#fcd821;stroke-linecap:round;stroke-linejoin:round;stroke-width:5px;}.cls-10{fill:#fcd821;}</style></defs><title>Abq Street Art Logo</title><rect width="703" height="358"/><path class="cls-1" d="M107.48,166.15l.11.13c23.73,61.72,69.08,91.36,104.18,105.31,24.28,9.73,46.55,15.47,50.25,15.76l.71.06a6,6,0,0,0,5.2-5.1,5.52,5.52,0,0,0-1.4-4.91A69.16,69.16,0,0,0,259,271c-12.87-10-42.53-34.33-55.43-75.52l-20.62-66-13.44-2.87a24.15,24.15,0,0,1-27.2,2.74,6,6,0,0,0-5.5-.2,6.24,6.24,0,0,0-3.24,4.54,23.48,23.48,0,0,1-8.25,14.81Z"/><path class="cls-2" d="M107.48,166.15l.11.13c23.73,61.72,69.08,91.36,104.18,105.31l-75-142.43a6.24,6.24,0,0,0-3.24,4.54,23.48,23.48,0,0,1-8.25,14.81Z"/><path class="cls-3" d="M83.66,80.15c14,6,28.39,19.82,35.46,33.33a5.74,5.74,0,0,0,4.78,3.26,6.27,6.27,0,0,0,3.29-.69,4.77,4.77,0,0,0,1.81-1.66,5.77,5.77,0,0,0,.63-6.42,73.44,73.44,0,0,0-14.07-19c-7-7-17.91-15.87-27.19-19.85a6.18,6.18,0,0,0-7.93,3.21A6.1,6.1,0,0,0,83.66,80.15Z"/><path class="cls-3" d="M102.88,153.19c1.33,4.42,2.92,8.51,4.6,13a38.67,38.67,0,0,0,13.45-1.69,35.79,35.79,0,0,0,18.35-13.64,36.71,36.71,0,0,0,4.24-8c.12,0,.35.15.47.16a35.08,35.08,0,0,0,17.21.65,35.68,35.68,0,0,0,16.09-7.83,39.55,39.55,0,0,0,5.66-6.26,50.89,50.89,0,0,0-3.54-8.31c-11.1-20.07-35-27.38-55.61-16.67-.25.1-.38.21-.63.31C107.26,113.38,96.58,131.59,102.88,153.19Z"/><path class="cls-4" d="M102.88,153.19c1.33,4.42,2.92,8.51,4.6,13a38.67,38.67,0,0,0,13.45-1.69,35.79,35.79,0,0,0,18.35-13.64,36.71,36.71,0,0,0,4.24-8c.12,0,.35.15.47.16L123.8,104.51c-.25.1-.38.21-.63.31C107.26,113.38,96.58,131.59,102.88,153.19Z"/><path class="cls-5" d="M86.09,175l.11.13c24.83,60.93,70.54,89.52,105.74,102.7,24.35,9.2,46.62,14.46,50.3,14.68l.71,0a5.93,5.93,0,0,0,5.08-5.17,5.51,5.51,0,0,0-1.5-4.86,68.39,68.39,0,0,0-7.61-6.17c-13-9.71-43-33.31-56.65-74l-21.83-65.28L147,134.47a24,24,0,0,1-27,3.27,6,6,0,0,0-5.48-.09,6.19,6.19,0,0,0-3.13,4.58,23.33,23.33,0,0,1-7.92,14.9Z"/><path class="cls-6" d="M86.09,175l.11.13c24.83,60.93,70.54,89.52,105.74,102.7L114.53,137.65a6.19,6.19,0,0,0-3.13,4.58,23.33,23.33,0,0,1-7.92,14.9Z"/><path class="cls-7" d="M60.67,90c14.08,5.72,28.64,19.15,36,32.46a5.72,5.72,0,0,0,4.82,3.14,6.24,6.24,0,0,0,3.26-.76,4.77,4.77,0,0,0,1.77-1.68,5.76,5.76,0,0,0,.5-6.4A73.34,73.34,0,0,0,92.59,98.1C85.5,91.24,74.45,82.67,65.14,78.89a6.14,6.14,0,0,0-7.82,3.35A6.07,6.07,0,0,0,60.67,90Z"/><path class="cls-7" d="M81.25,162.23c1.41,4.38,3.08,8.41,4.84,12.8a38.61,38.61,0,0,0,13.34-1.94,35.7,35.7,0,0,0,18-13.94,37.15,37.15,0,0,0,4.06-8.09c.11,0,.34.14.46.14a34.78,34.78,0,0,0,17.14.31,35.49,35.49,0,0,0,15.85-8.11,39.61,39.61,0,0,0,5.51-6.34,50.4,50.4,0,0,0-3.68-8.2c-11.45-19.75-35.35-26.54-55.67-15.48-.25.1-.37.22-.62.32C84.82,122.53,74.55,140.86,81.25,162.23Z"/><path class="cls-8" d="M81.25,162.23c1.41,4.38,3.08,8.41,4.84,12.8a38.61,38.61,0,0,0,13.34-1.94,35.7,35.7,0,0,0,18-13.94,37.15,37.15,0,0,0,4.06-8.09c.11,0,.34.14.46.14l-20.85-37.82c-.25.1-.37.22-.62.32C84.82,122.53,74.55,140.86,81.25,162.23Z"/><rect class="cls-9" x="11.5" y="12" width="680" height="335"/><path class="cls-10" d="M376.52,267.3l27.74,4.43v18.95L283.58,270.17v-25L404.26,224.9V244l-27.74,4.26Zm-65.3-9.56,47.58,6.74V251Z"/><path class="cls-10" d="M404.26,209.59H283.49V182.34a34.72,34.72,0,0,1,5.68-19.46q4.81-7.41,14.93-10.59a41.86,41.86,0,0,1,12.81-1.74q12.13,0,19.45,6.46a18.2,18.2,0,0,1,4.72,6.35q2.31-6.06,9.15-10.3a35.61,35.61,0,0,1,11.94-4.14,47.62,47.62,0,0,1,8.38-.68q11.46,0,19.45,4.34a25.84,25.84,0,0,1,10,9.53,26.23,26.23,0,0,1,4.24,13.77ZM332.8,189.94v-7.6q0-8.47-8.28-11.37a23.82,23.82,0,0,0-7.61-1.06q-7.52,0-11.37,3.66a11.54,11.54,0,0,0-3.56,8.77v7.6Zm53.45,0v-7.6q0-9.26-9.54-12.81a20.78,20.78,0,0,0-7.51-1.26q-10.11,0-14.73,3.86-4.25,3.47-4.24,10.21v7.6Z"/><path class="cls-10" d="M376.81,75.05a28.4,28.4,0,0,1,14.45,3.85A8.64,8.64,0,0,0,394.05,72H411q0,13.68-8.57,18.68a27.41,27.41,0,0,1,3.27,13.2,28.85,28.85,0,0,1-28.89,28.89H310.94A28.87,28.87,0,0,1,282,103.85a27.53,27.53,0,0,1,8.53-20.42,28,28,0,0,1,20.37-8.38ZM310.55,93.93A10,10,0,0,0,303.18,97a10.21,10.21,0,0,0-3,7.42,10.36,10.36,0,0,0,10.4,10.4h66.07a10.36,10.36,0,0,0,10.4-10.4A10.21,10.21,0,0,0,384,97a10,10,0,0,0-7.37-3.08Z"/><path class="cls-10" d="M453.37,123.07a19.33,19.33,0,0,1-3.74,12.28,13.44,13.44,0,0,1-7.15,4.88,19.57,19.57,0,0,1-5.77.77,16.37,16.37,0,0,1-10.12-3,16.8,16.8,0,0,1-5.31-6.71,27.12,27.12,0,0,1-2.28-9.74l9.9-.71q.66,6,3.19,8.71a5.32,5.32,0,0,0,4.29,1.93,6.44,6.44,0,0,0,5.44-3.35,8.26,8.26,0,0,0,1.05-4.55q0-4.29-3.91-8.51l-9.24-8.73a39.6,39.6,0,0,1-7.31-8.94,20.67,20.67,0,0,1-2.31-9.66q0-9.39,6.32-14.22a15.76,15.76,0,0,1,9.68-2.91,17.71,17.71,0,0,1,9.52,2.47,14.26,14.26,0,0,1,5,5.37,19.72,19.72,0,0,1,2.28,8l-9.95,1.8a12,12,0,0,0-2.42-6.58,5.09,5.09,0,0,0-4.12-1.69A4.76,4.76,0,0,0,432,82.44a9.74,9.74,0,0,0-1.21,5c0,3.15,1.36,6.34,4.07,9.6a34.86,34.86,0,0,0,4.62,4.38c2.42,2,4,3.42,4.79,4.23a35.35,35.35,0,0,1,5.93,7.56,30.06,30.06,0,0,1,1.6,3.24A18.86,18.86,0,0,1,453.37,123.07Z"/><path class="cls-10" d="M471.57,81.89H460.52V71.47H493V81.89H482v58.29H471.57Z"/><path class="cls-10" d="M517.71,71.47q8.68,0,12.75,4.77Q534,80.41,534,87.87v10a16,16,0,0,1-5.56,12.33l7.7,30H524.94l-6.3-25.88h-6.93v25.88H501.32V71.47ZM523.92,88c0-4-2-6-5.94-6h-6.27v22H518a5.7,5.7,0,0,0,4.21-1.75,5.81,5.81,0,0,0,1.73-4.22Z"/><path class="cls-10" d="M545.09,140.18V71.42h29.58V81.83H555.48v18.76h14V111h-14v18.75h19.19v10.42Z"/><path class="cls-10" d="M581.82,140.18V71.42h29.59V81.83H592.22v18.76h14V111h-14v18.75h19.19v10.42Z"/><path class="cls-10" d="M629.61,81.89H618.56V71.47H651V81.89H640v58.29H629.61Z"/><path class="cls-10" d="M438.51,258.24,433.45,290h-21.7l23.48-138.17H463.9L487.06,290H465.15l-4.88-31.76Zm10.95-74.76L441.74,238h15.44Z"/><path class="cls-10" d="M537.45,151.83q17.43,0,25.58,9.6,7.17,8.37,7.17,23.37v20.07a32.26,32.26,0,0,1-11.14,24.81L574.5,290H552L539.33,238h-13.9V290H504.59V151.83Zm12.46,33.3q0-12-11.91-12H525.43v44.22H538a11.38,11.38,0,0,0,8.44-3.53,11.68,11.68,0,0,0,3.47-8.49Z"/><path class="cls-10" d="M607.69,172.78H585.53V151.83h65.06v20.95H628.53V290H607.69Z"/></svg>